<svg xmlns="http://www.w3.org/2000/svg" width="10" height="10" viewBox="0 0 10 10"><g><g><path fill="#a89574" d="M9 5a1 1 0 0 1-1-1V3c0-.405.243-.75.59-.907l-.717.062c-.08-.349-.262-.694-.669-.672-.81.045-3.96-.135-4.5.045-.408.137-.55.475-.634 1.137l-.135.012A.982.982 0 0 1 2 3v1a1 1 0 0 1-2 0V3c0-.055.023-.103.032-.156V2.84c.017-.102.041-.2.087-.29C.543 1.22 2.513.263 3.076.122c.604-.15 1.395-.169 2.299-.183.571-.01.46.136 1.517.099C7.949-.001 10 1.969 10 1.969l-.805.07A.986.986 0 0 1 10 3v1a1 1 0 0 1-1 1zM.704 8.06c.802-.963 2.146-2.502 3.108-3.21 1.33-.977 2.186-.094 5.342 3.181.436.07.768.41.822.852l.054.056h-.042c0 .021.012.04.012.061a1 1 0 0 1-1 1H1a1 1 0 0 1-1-1c0-.447.299-.812.704-.94zm4.171.527a1.306 1.306 0 1 0 0-2.611 1.306 1.306 0 0 0 0 2.611z"/></g></g></svg>